# xmcd
#
# Track frame offsets:
#	150
#	18299
#	37520
#	57429
#	73365
#	91284
#	104648
#	120688
#	143173
#	160606
#	177964
#	193969
#	212657
#	234355
#	254659
#	268164
#	282527
#	298759
#
# Disc length: 4239 seconds
#
# Revision: 1
# Processed by: cddbd v1.5.2PL0 Copyright (c) Steve Scherf et al.
# Submitted via: audiograbber 1.83.01
#
DISCID=17108d12
DTITLE=Various Artist - TT230
DYEAR=1900
DGENRE=Karaoke
TTITLE0=Judd, Wynonna - Heaven Help Me 
TTITLE1=Montgomery Gentry - Hell Yeah
TTITLE2=Atkins, Rodney - Honesty (Write Me A List)
TTITLE3=Adkins, Trace - Hot Mama
TTITLE4=Rascal Flatts - I Melt
TTITLE5=Clark, Terri - I Want To Do It All
TTITLE6=McEntire, Reba - I'm Gonna Take That Mountain
TTITLE7=Trevino, Rick - In My Dreams
TTITLE8=Paisley, Brad - Little Moments
TTITLE9=Chesney, Kenny - Never Gonna Feel That Way Again
TTITLE10=Chesney, Kenny - No Shoes, No Shirt, No Problems
TTITLE11=Evans, Sara - Perfect
TTITLE12=Yoakam, Dwight - Population Me
TTITLE13=Jackson, Alan - Remember When
TTITLE14=Strait, George - She Used To Say That To Me
TTITLE15=Yoakam, Dwight - The Back Of Your Hand
TTITLE16=Brooks And Dunn - You Can't Take The Honkey Tonk Out Of The Girl
TTITLE17=Gill, Vince - Young Man's Town
EXTD=
EXTT0=
EXTT1=
EXTT2=
EXTT3=
EXTT4=
EXTT5=
EXTT6=
EXTT7=
EXTT8=
EXTT9=
EXTT10=
EXTT11=
EXTT12=
EXTT13=
EXTT14=
EXTT15=
EXTT16=
EXTT17=
PLAYORDER=
